<svg width="30" height="30" viewBox="0 0 30 30" fill="none" xmlns="http://www.w3.org/2000/svg">
<path d="M25.6066 4.3934C22.7936 1.58035 18.9782 -2.96402e-08 15 0C11.0218 2.96403e-08 7.20644 1.58035 4.3934 4.3934C1.58035 7.20644 2.96403e-08 11.0218 0 15C-2.96403e-08 18.9782 1.58035 22.7936 4.3934 25.6066C7.20644 28.4196 11.0218 30 15 30C18.9782 30 22.7936 28.4196 25.6066 25.6066C28.4196 22.7936 30 18.9782 30 15C30 11.0218 28.4196 7.20644 25.6066 4.3934ZM23.9754 23.9754C22.2003 25.7502 19.9387 26.9588 17.4768 27.4484C15.0148 27.938 12.4629 27.6865 10.1438 26.7258C7.82474 25.7651 5.84261 24.1384 4.44806 22.0512C3.05351 19.964 2.30917 17.5102 2.30917 15C2.30917 12.4898 3.05351 10.036 4.44806 7.94881C5.84261 5.86164 7.82474 4.23485 10.1438 3.27416C12.4629 2.31346 15.0148 2.06201 17.4768 2.55159C19.9387 3.04116 22.2003 4.24979 23.9754 6.02463C26.3521 8.40698 27.6869 11.6348 27.6869 15C27.6869 18.3652 26.3521 21.593 23.9754 23.9754ZM20.4317 19.9528C20.6482 20.1693 20.7698 20.463 20.7698 20.7692C20.7698 21.0753 20.6482 21.369 20.4317 21.5855C20.2152 21.802 19.9215 21.9236 19.6153 21.9236C19.3091 21.9236 19.0155 21.802 18.799 21.5855L15 17.7851L11.201 21.5855C11.0938 21.6927 10.9665 21.7777 10.8265 21.8358C10.6864 21.8938 10.5363 21.9236 10.3847 21.9236C10.2331 21.9236 10.0829 21.8938 9.94287 21.8358C9.80281 21.7777 9.67554 21.6927 9.56833 21.5855C9.46113 21.4783 9.37609 21.351 9.31808 21.211C9.26006 21.0709 9.2302 20.9208 9.2302 20.7692C9.2302 20.6176 9.26006 20.4674 9.31808 20.3274C9.37609 20.1873 9.46113 20.06 9.56833 19.9528L14.1837 15.3375C14.2908 15.2302 14.4181 15.1451 14.5582 15.087C14.6982 15.029 14.8484 14.9991 15 14.9991C15.1516 14.9991 15.3018 15.029 15.4418 15.087C15.5819 15.1451 15.7092 15.2302 15.8163 15.3375L20.4317 19.9528ZM20.4317 11.876C20.5389 11.9832 20.6239 12.1105 20.6819 12.2505C20.7399 12.3906 20.7698 12.5407 20.7698 12.6923C20.7698 12.8439 20.7399 12.9941 20.6819 13.1341C20.6239 13.2742 20.5389 13.4015 20.4317 13.5087C20.3245 13.6159 20.1972 13.7009 20.0571 13.7589C19.9171 13.8169 19.7669 13.8468 19.6153 13.8468C19.4637 13.8468 19.3136 13.8169 19.1735 13.7589C19.0335 13.7009 18.9062 13.6159 18.799 13.5087L15 9.70824L11.201 13.5087C10.9845 13.7252 10.6909 13.8468 10.3847 13.8468C10.0785 13.8468 9.78484 13.7252 9.56833 13.5087C9.35183 13.2922 9.2302 12.9985 9.2302 12.6923C9.2302 12.3862 9.35183 12.0925 9.56833 11.876L14.1837 7.26067C14.2908 7.15339 14.4181 7.06829 14.5582 7.01022C14.6982 6.95216 14.8484 6.92227 15 6.92227C15.1516 6.92227 15.3018 6.95216 15.4418 7.01022C15.5819 7.06829 15.7092 7.15339 15.8163 7.26067L20.4317 11.876Z" fill="#1C9770"/>
</svg>
