<svg width="36" height="38" viewBox="0 0 36 38" fill="none" xmlns="http://www.w3.org/2000/svg">
<path d="M35.1206 15.878L20.1206 0.877985C19.5581 0.315801 18.7953 0 18 0C17.2047 0 16.4419 0.315801 15.8794 0.877985L0.879394 15.878C0.599465 16.1558 0.377566 16.4866 0.2266 16.8509C0.0756349 17.2153 -0.00138498 17.6061 1.88503e-05 18.0005V36.0005C1.88503e-05 36.3983 0.158054 36.7798 0.439359 37.0611C0.720664 37.3424 1.10219 37.5005 1.50002 37.5005H13.5C13.8978 37.5005 14.2794 37.3424 14.5607 37.0611C14.842 36.7798 15 36.3983 15 36.0005V25.5005H21V36.0005C21 36.3983 21.1581 36.7798 21.4394 37.0611C21.7207 37.3424 22.1022 37.5005 22.5 37.5005H34.5C34.8978 37.5005 35.2794 37.3424 35.5607 37.0611C35.842 36.7798 36 36.3983 36 36.0005V18.0005C36.0014 17.6061 35.9244 17.2153 35.7734 16.8509C35.6225 16.4866 35.4006 16.1558 35.1206 15.878ZM33 34.5005H24V24.0005C24 23.6027 23.842 23.2211 23.5607 22.9398C23.2794 22.6585 22.8978 22.5005 22.5 22.5005H13.5C13.1022 22.5005 12.7207 22.6585 12.4394 22.9398C12.1581 23.2211 12 23.6027 12 24.0005V34.5005H3.00002V18.0005L18 3.00048L33 18.0005V34.5005Z" fill="#1C9770"/>
</svg>
