<svg width="32" height="40" viewBox="0 0 32 40" fill="none" xmlns="http://www.w3.org/2000/svg">
<path fill-rule="evenodd" clip-rule="evenodd" d="M16 2C13.7909 2 12 3.79086 12 6C12 8.2091 13.7909 10 16 10C18.2091 10 20 8.2091 20 6C20 3.79086 18.2091 2 16 2ZM10 6C10 2.68629 12.6863 0 16 0C19.3137 0 22 2.68629 22 6C22 9.3137 19.3137 12 16 12C12.6863 12 10 9.3137 10 6ZM7.3077 15.4615C7.9288 13.971 9.3852 13 11 13H21C22.6148 13 24.0712 13.971 24.6923 15.4615L27.1923 21.4615C28.2247 23.9393 26.5742 26.6549 24 26.9697V27.8915C24 28.2363 24.1776 28.5568 24.47 28.7395L30.018 32.207C31.251 32.9776 32 34.329 32 35.783C32 38.112 30.112 40 27.783 40H4.2132C1.88632 40 0 38.1137 0 35.7868C0 34.3299 0.75264 32.9764 1.99021 32.2078L7.5776 28.7373C7.8714 28.5549 8.05 28.2336 8.05 27.8878V26.9755C5.4472 26.69 3.7686 23.9553 4.8077 21.4615L7.3077 15.4615ZM10.05 27V27.8878C10.05 28.9252 9.5141 29.8889 8.6329 30.4363L3.0455 33.9067C2.3954 34.3105 2 35.0215 2 35.7868C2 37.0091 2.9909 38 4.2132 38H22C22.5523 38 23 37.5523 23 37V36.8707C23 36.3443 22.5919 35.9081 22.0667 35.8729L8.9833 34.9978C8.4322 34.9609 8.0154 34.4843 8.0522 33.9333C8.0891 33.3822 8.5657 32.9654 9.1167 33.0022L22.2002 33.8774C23.7758 33.9828 25 35.2916 25 36.8707V37C25 37.3506 24.9398 37.6872 24.8293 38H27.783C29.0074 38 30 37.0074 30 35.783C30 35.0186 29.6062 34.3081 28.958 33.903L23.41 30.4355C22.5329 29.8873 22 28.9259 22 27.8915V27H19.2426C18.1818 27 17.1644 26.5786 16.4142 25.8284L16 25.4142L15.5858 25.8284C14.8356 26.5786 13.8182 27 12.7574 27H10.05ZM17 23.5858L17.8284 24.4142C18.2035 24.7893 18.7122 25 19.2426 25H23.5C24.9272 25 25.8951 23.5481 25.3462 22.2308L22.8462 16.2308C22.5356 15.4855 21.8074 15 21 15H11C10.1926 15 9.4644 15.4855 9.1538 16.2308L6.6538 22.2308C6.1049 23.5481 7.0728 25 8.5 25H12.7574C13.2878 25 13.7965 24.7893 14.1716 24.4142L15 23.5858V21.2662C14.7743 21.3964 14.5692 21.5743 14.4 21.8L13.8 22.6C13.6111 22.8518 13.3148 23 13 23H10C9.6534 23 9.3316 22.8205 9.1493 22.5257C8.9671 22.2309 8.9506 21.8628 9.1056 21.5528L10.1056 19.5528C10.3526 19.0588 10.9532 18.8586 11.4472 19.1056C11.9412 19.3526 12.1414 19.9532 11.8944 20.4472L11.618 21H12.5L12.8 20.6C14.4 18.4667 17.6 18.4667 19.2 20.6L19.5 21H20.382L20.1056 20.4472C19.8586 19.9532 20.0588 19.3526 20.5528 19.1056C21.0468 18.8586 21.6474 19.0588 21.8944 19.5528L22.8944 21.5528C23.0494 21.8628 23.0329 22.2309 22.8507 22.5257C22.6684 22.8205 22.3466 23 22 23H19C18.6852 23 18.3889 22.8518 18.2 22.6L17.6 21.8C17.4308 21.5743 17.2257 21.3964 17 21.2662V23.5858Z" fill="#1C9770"/>
</svg>
