<svg width="42" height="32" viewBox="0 0 42 32" fill="none" xmlns="http://www.w3.org/2000/svg">
<path d="M31.5 0H10.5C7.71614 0.00297792 5.04715 1.11018 3.07867 3.07867C1.11018 5.04715 0.00297792 7.71614 0 10.5V28.5C0 29.2956 0.31607 30.0587 0.87868 30.6213C1.44129 31.1839 2.20435 31.5 3 31.5H39C39.7957 31.5 40.5587 31.1839 41.1213 30.6213C41.6839 30.0587 42 29.2956 42 28.5V10.5C41.997 7.71614 40.8898 5.04715 38.9213 3.07867C36.9528 1.11018 34.2839 0.00297792 31.5 0ZM39 10.5V12H33V3.15C34.6929 3.49808 36.2141 4.41919 37.307 5.75806C38.4 7.09692 38.9979 8.77167 39 10.5ZM22.5 18H19.5V12H22.5V18ZM18 21H24C24.3978 21 24.7794 20.842 25.0607 20.5607C25.342 20.2794 25.5 19.8978 25.5 19.5V15H30V28.5H12V15H16.5V19.5C16.5 19.8978 16.658 20.2794 16.9393 20.5607C17.2206 20.842 17.6022 21 18 21ZM25.5 12V10.5C25.5 10.1022 25.342 9.72064 25.0607 9.43934C24.7794 9.15804 24.3978 9 24 9H18C17.6022 9 17.2206 9.15804 16.9393 9.43934C16.658 9.72064 16.5 10.1022 16.5 10.5V12H12V3H30V12H25.5ZM9 3.15V12H3V10.5C3.00211 8.77167 3.60004 7.09692 4.69299 5.75806C5.78595 4.41919 7.30709 3.49808 9 3.15ZM3 15H9V28.5H3V15ZM39 28.5H33V15H39V28.5Z" fill="#1C9770"/>
</svg>
