<svg width="30" height="40" viewBox="0 0 30 40" fill="none" xmlns="http://www.w3.org/2000/svg">
<path d="M21.4995 9C23.9848 9 25.9995 6.9853 25.9995 4.5C25.9995 2.01472 23.9848 0 21.4995 0C19.0142 0 16.9995 2.01472 16.9995 4.5C16.9995 6.9853 19.0142 9 21.4995 9Z" fill="#1C9770"/>
<path d="M12.4596 13.2823C11.2121 13.5915 10.3614 14.0579 9.67457 14.6362C8.64377 15.5043 7.81287 16.7569 6.68867 18.7241C6.14067 19.6831 4.91897 20.0163 3.95997 19.4683C3.00087 18.9202 2.66777 17.6985 3.21577 16.7395C4.33427 14.7822 5.46567 12.9512 7.09797 11.5766C8.80227 10.1414 10.8878 9.32879 13.7019 9.01599C14.8776 8.88539 16.1708 8.91169 17.3841 9.45319C18.6578 10.0218 19.5871 11.0406 20.2212 12.4023C21.075 14.2358 21.7102 15.3274 22.219 15.9595C22.4636 16.2633 22.6347 16.4042 22.7313 16.4673C22.8084 16.5176 22.8408 16.5214 22.8533 16.5228L22.8547 16.523C22.9418 16.5336 23.2231 16.5226 24.0519 16.1563C24.4125 15.9969 24.807 15.8042 25.2885 15.5689L25.4037 15.5126C25.9249 15.2581 26.5215 14.9686 27.1877 14.6724C28.1971 14.2238 29.379 14.6784 29.8276 15.6878C30.2762 16.6971 29.8217 17.879 28.8123 18.3277C28.217 18.5922 27.6761 18.8544 27.1591 19.1069L27.0284 19.1708C26.5674 19.3961 26.1036 19.6228 25.669 19.8149C24.7683 20.213 23.6176 20.6454 22.3712 20.4937C21.0557 20.3335 20.0412 19.5914 19.2068 18.5941L16.473 23.8666L20.2527 28.7853C20.4782 29.0786 20.6178 29.4288 20.6562 29.7968L21.4888 37.793C21.6032 38.8916 20.8053 39.875 19.7067 39.9893C18.608 40.1038 17.6247 39.3059 17.5103 38.2072L16.7363 30.7739L14.4405 27.7864L14.4213 27.8235L14.3368 27.6515L10.0944 22.1307C9.67037 21.579 9.56357 20.8467 9.81237 20.197L12.4596 13.2823Z" fill="#1C9770"/>
<path d="M9.43161 25.0071L7.95981 28.9676L2.15861 28.5063C1.05751 28.4187 0.0939579 29.2404 0.00639792 30.3414C-0.0811721 31.4425 0.740458 32.4061 1.84151 32.4937L9.14951 33.0748C10.041 33.1457 10.8712 32.6161 11.1828 31.7778L12.3079 28.7501L9.43161 25.0071Z" fill="#1C9770"/>
</svg>
