<svg width="36" height="27" viewBox="0 0 36 27" fill="none" xmlns="http://www.w3.org/2000/svg">
<path d="M36 13.5C36 13.8978 35.842 14.2794 35.5607 14.5607C35.2794 14.842 34.8978 15 34.5 15H1.5C1.10218 15 0.720645 14.842 0.43934 14.5607C0.158036 14.2794 0 13.8978 0 13.5C0 13.1022 0.158036 12.7206 0.43934 12.4393C0.720645 12.158 1.10218 12 1.5 12H34.5C34.8978 12 35.2794 12.158 35.5607 12.4393C35.842 12.7206 36 13.1022 36 13.5ZM1.5 3H34.5C34.8978 3 35.2794 2.84196 35.5607 2.56066C35.842 2.27936 36 1.89782 36 1.5C36 1.10218 35.842 0.720645 35.5607 0.43934C35.2794 0.158036 34.8978 0 34.5 0H1.5C1.10218 0 0.720645 0.158036 0.43934 0.43934C0.158036 0.720645 0 1.10218 0 1.5C0 1.89782 0.158036 2.27936 0.43934 2.56066C0.720645 2.84196 1.10218 3 1.5 3ZM34.5 24H1.5C1.10218 24 0.720645 24.158 0.43934 24.4393C0.158036 24.7206 0 25.1022 0 25.5C0 25.8978 0.158036 26.2794 0.43934 26.5607C0.720645 26.842 1.10218 27 1.5 27H34.5C34.8978 27 35.2794 26.842 35.5607 26.5607C35.842 26.2794 36 25.8978 36 25.5C36 25.1022 35.842 24.7206 35.5607 24.4393C35.2794 24.158 34.8978 24 34.5 24Z" fill="#1C9770"/>
</svg>
