<svg width="14" height="19" viewBox="0 0 14 19" fill="none" xmlns="http://www.w3.org/2000/svg">
<path d="M13.9836 8.72153C13.9595 8.61999 13.9106 8.52594 13.8412 8.44775C13.7718 8.36955 13.6842 8.30963 13.5859 8.2733L9.00446 6.56194L10.1703 0.754704C10.1967 0.619776 10.1783 0.479958 10.1179 0.356349C10.0575 0.232739 9.95839 0.132046 9.83549 0.0694635C9.71258 0.00688098 9.57257 -0.0141951 9.43657 0.00941579C9.30058 0.0330266 9.17599 0.100043 9.0816 0.200353L0.174734 9.70353C0.102394 9.77943 0.0500615 9.872 0.0224134 9.97296C-0.00523461 10.0739 -0.00733763 10.1801 0.0162924 10.2821C0.0399225 10.3841 0.0885495 10.4786 0.157829 10.5573C0.227109 10.636 0.314884 10.6964 0.413311 10.733L4.99637 12.4444L3.83371 18.2453C3.80731 18.3802 3.8257 18.52 3.88609 18.6437C3.94649 18.7673 4.04562 18.868 4.16853 18.9305C4.29144 18.9931 4.43145 19.0142 4.56744 18.9906C4.70344 18.967 4.82803 18.9 4.92241 18.7996L13.8293 9.29647C13.9003 9.22055 13.9515 9.12841 13.9784 9.02816C14.0053 8.92791 14.0071 8.82262 13.9836 8.72153ZM5.52045 16.3106L6.35308 12.1625C6.38288 12.0154 6.35927 11.8625 6.28645 11.7311C6.21363 11.5997 6.09633 11.4983 5.95545 11.445L1.75332 9.873L8.48278 2.69335L7.65094 6.84149C7.62114 6.9886 7.64475 7.14148 7.71757 7.27287C7.79039 7.40427 7.90769 7.50566 8.04857 7.55898L12.2475 9.127L5.52045 16.3106Z" fill="white"/>
</svg>
