<svg width="30" height="30" viewBox="0 0 30 30" fill="none" xmlns="http://www.w3.org/2000/svg">
<path d="M15.0019 0C14.6959 0 14.4024 0.121565 14.186 0.337953C13.9697 0.554341 13.8481 0.847827 13.8481 1.15385V9.23076C13.8481 9.53678 13.9697 9.83027 14.186 10.0467C14.4024 10.263 14.6959 10.3846 15.0019 10.3846C16.0179 10.3848 17.0054 10.7203 17.8113 11.3389C18.6172 11.9576 19.1964 12.8248 19.4592 13.8062C19.722 14.7876 19.6536 15.8282 19.2647 16.7668C18.8758 17.7054 18.188 18.4894 17.3081 18.9973C16.4282 19.5052 15.4053 19.7085 14.3981 19.5758C13.3908 19.4431 12.4555 18.9818 11.7371 18.2634C11.0188 17.5449 10.5576 16.6096 10.425 15.6023C10.2924 14.595 10.4959 13.5721 11.0039 12.6923C11.0797 12.561 11.1288 12.4162 11.1486 12.2659C11.1684 12.1156 11.1584 11.9629 11.1191 11.8165C11.0799 11.6701 11.0122 11.5329 10.9199 11.4127C10.8276 11.2925 10.7125 11.1916 10.5813 11.1159L3.58608 7.0774C3.45483 7.00161 3.30993 6.95242 3.15966 6.93263C3.0094 6.91285 2.85671 6.92287 2.71031 6.96212C2.56392 7.00136 2.42669 7.06906 2.30647 7.16135C2.18624 7.25364 2.08538 7.36871 2.00964 7.5C0.358674 10.3595 -0.302619 13.684 0.128317 16.9576C0.559252 20.2313 2.05833 23.2714 4.39307 25.6062C6.72782 27.9411 9.76774 29.4404 13.0414 29.8716C16.3151 30.3027 19.6395 29.6416 22.4992 27.9908C25.3588 26.3401 27.5939 23.7918 28.8577 20.7414C30.1216 17.6909 30.3436 14.3086 29.4893 11.1191C28.635 7.9296 26.7521 5.11111 24.1328 3.10072C21.5134 1.09034 18.3039 0.000424092 15.0019 0ZM3.47646 9.67788L8.51156 12.5856C8.22503 13.3583 8.07851 14.1759 8.07886 15C8.07886 15.2207 8.0904 15.4327 8.11059 15.6519L2.49425 17.1635C2.05627 14.6264 2.39877 12.0161 3.47646 9.67788ZM3.09137 19.386L8.71636 17.8803C9.18665 18.9054 9.89978 19.8004 10.794 20.4878C11.6882 21.1752 12.7365 21.6341 13.8481 21.825V27.6389C11.4594 27.4175 9.18196 26.5252 7.27866 25.0649C5.37536 23.6046 3.92375 21.636 3.09137 19.386ZM16.1558 27.6389V21.825C17.7683 21.5517 19.232 20.7163 20.2874 19.4669C21.3429 18.2175 21.9219 16.6348 21.9219 14.9993C21.9219 13.3637 21.3429 11.781 20.2874 10.5316C19.232 9.28226 17.7683 8.44687 16.1558 8.17355V2.35961C19.3089 2.6477 22.2406 4.10394 24.3752 6.44248C26.5098 8.78102 27.6933 11.833 27.6933 14.9993C27.6933 18.1656 26.5098 21.2175 24.3752 23.5561C22.2406 25.8946 19.3089 27.3508 16.1558 27.6389Z" fill="#1C9770"/>
</svg>
