<svg width="16" height="20" viewBox="0 0 16 20" fill="none" xmlns="http://www.w3.org/2000/svg">
<path d="M12.9276 12.339C12.7412 13.38 12.2404 14.339 11.4925 15.0867C10.7446 15.8344 9.78556 16.3351 8.74449 16.5212C8.70497 16.5276 8.66502 16.5309 8.625 16.5311C8.44471 16.5311 8.27102 16.4633 8.13838 16.3411C8.00574 16.219 7.92383 16.0515 7.9089 15.8719C7.89398 15.6922 7.94712 15.5135 8.0578 15.3711C8.16847 15.2288 8.32859 15.1333 8.50641 15.1035C9.99512 14.8528 11.2583 13.5896 11.5108 12.0982C11.5427 11.9102 11.648 11.7426 11.8035 11.6322C11.959 11.5219 12.152 11.4778 12.34 11.5097C12.528 11.5417 12.6957 11.647 12.806 11.8025C12.9164 11.958 12.9604 12.151 12.9285 12.339H12.9276ZM15.8125 11.4999C15.8125 13.5967 14.9795 15.6077 13.4968 17.0904C12.0141 18.5731 10.0031 19.4061 7.90625 19.4061C5.80938 19.4061 3.7984 18.5731 2.31569 17.0904C0.832978 15.6077 0 13.5967 0 11.4999C0 8.99142 0.988282 6.42638 2.9343 3.87661C2.9959 3.79588 3.0739 3.72911 3.16318 3.68071C3.25246 3.63231 3.35098 3.60338 3.45225 3.59583C3.55352 3.58827 3.65524 3.60227 3.75071 3.63688C3.84618 3.6715 3.93324 3.72595 4.00613 3.79665L6.17316 5.89989L8.14973 0.472433C8.18922 0.364183 8.25415 0.267015 8.33906 0.189118C8.42397 0.111222 8.52636 0.0548814 8.6376 0.0248465C8.74885 -0.00518843 8.86568 -0.00803741 8.97826 0.0165398C9.09083 0.0411171 9.19585 0.0924002 9.28445 0.166065C11.2493 1.79673 15.8125 6.15864 15.8125 11.4999ZM14.375 11.4999C14.375 7.35896 11.1595 3.78048 9.1452 1.94677L7.14437 7.43353C7.10331 7.54622 7.0347 7.64684 6.94479 7.72623C6.85488 7.80561 6.74653 7.86124 6.62963 7.88803C6.51272 7.91482 6.39096 7.91194 6.27545 7.87963C6.15995 7.84732 6.05436 7.78662 5.96832 7.70306L3.59914 5.40485C2.16434 7.47575 1.4375 9.52329 1.4375 11.4999C1.4375 13.2155 2.11903 14.8608 3.33215 16.074C4.54528 17.2871 6.19063 17.9686 7.90625 17.9686C9.62187 17.9686 11.2672 17.2871 12.4803 16.074C13.6935 14.8608 14.375 13.2155 14.375 11.4999Z" fill="#1C9770"/>
</svg>
