<svg width="25" height="34" viewBox="0 0 25 34" fill="none" xmlns="http://www.w3.org/2000/svg">
<path d="M24.6879 0.420315C24.5704 0.287833 24.426 0.18185 24.2644 0.109388C24.1027 0.036926 23.9275 -0.00035937 23.7504 2.61062e-06H1.25043C1.07305 -5.82781e-05 0.897686 0.0376333 0.735996 0.110573C0.574306 0.183512 0.429991 0.290029 0.312642 0.423045C0.195293 0.55606 0.107597 0.712527 0.0553827 0.882049C0.00316845 1.05157 -0.0123683 1.23026 0.00980426 1.40625L3.62699 31.5625C3.70316 32.1671 3.9975 32.723 4.4547 33.1258C4.91189 33.5286 5.50047 33.7506 6.1098 33.75H18.8911C19.5025 33.7502 20.0929 33.5262 20.5504 33.1205C21.0079 32.7149 21.3009 32.1555 21.3739 31.5484L24.9911 1.40625C25.0136 1.22981 24.9982 1.05058 24.9459 0.880559C24.8937 0.710535 24.8057 0.553625 24.6879 0.420315ZM22.3442 2.5L21.8911 6.25H3.1098L2.65668 2.5H22.3442ZM18.8911 31.25H6.1098L3.4098 8.75H21.591L18.8911 31.25Z" fill="#1C9770"/>
</svg>
